<?xml version="1.0" encoding="utf-8"?>
<!-- Generator: Adobe Illustrator 16.0.0, SVG Export Plug-In . SVG Version: 6.00 Build 0)  -->
<!DOCTYPE svg PUBLIC "-//W3C//DTD SVG 1.1//EN" "http://www.w3.org/Graphics/SVG/1.1/DTD/svg11.dtd">
<svg version="1.1" id="Layer_1" xmlns="http://www.w3.org/2000/svg" xmlns:xlink="http://www.w3.org/1999/xlink" x="0px" y="0px"
	 width="512px" height="512px" viewBox="0 0 512 512" enable-background="new 0 0 512 512" xml:space="preserve">
<linearGradient id="SVGID_1_" gradientUnits="userSpaceOnUse" x1="256.0005" y1="506" x2="256.0005" y2="6.0005">
	<stop  offset="0" style="stop-color:#000E2A"/>
	<stop  offset="0.0791" style="stop-color:#001936"/>
	<stop  offset="0.2693" style="stop-color:#002F4D"/>
	<stop  offset="0.4742" style="stop-color:#003F5D"/>
	<stop  offset="0.7023" style="stop-color:#004867"/>
	<stop  offset="1" style="stop-color:#004B6A"/>
</linearGradient>
<path fill="url(#SVGID_1_)" d="M506,474c0,17.673-14.327,32-32,32H38c-17.673,0-32-14.327-32-32V38C6,20.327,20.327,6,38,6h436
	c17.673,0,32,14.327,32,32V474z"/>
<g>
	<g>
		
			<line fill="none" stroke="#0071BC" stroke-width="6" stroke-linecap="round" stroke-linejoin="round" x1="169" y1="180" x2="322" y2="180"/>
		<g>
			<polygon fill="#0071BC" points="343.212,179.792 313.364,191.988 320.447,179.792 313.364,167.598 			"/>
		</g>
	</g>
</g>
<g>
	<g>
		
			<line fill="none" stroke="#0071BC" stroke-width="6" stroke-linecap="round" stroke-linejoin="round" x1="359.094" y1="229.625" x2="318.691" y2="275.73"/>
		<g>
			<polygon fill="#0071BC" points="304.731,291.661 315.229,261.175 319.735,274.54 333.573,277.249 			"/>
		</g>
	</g>
</g>
<g>
	<g>
		<path fill="none" stroke="#0071BC" stroke-width="6" stroke-linecap="round" stroke-linejoin="round" d="M218.641,276.694
			c0.031-18.546-13.974-34.479-32.821-36.452c-20.123-2.106-38.142,12.498-40.249,32.62c-1.958,18.696,10.51,35.577,28.426,39.565"
			/>
		<g>
			<polygon fill="#0071BC" points="195.13,310.877 165.749,324.157 172.38,311.71 164.856,299.784 			"/>
		</g>
	</g>
</g>
<linearGradient id="SVGID_2_" gradientUnits="userSpaceOnUse" x1="102.8042" y1="233.4971" x2="102.8042" y2="125.3384">
	<stop  offset="0" style="stop-color:#00182A"/>
	<stop  offset="1" style="stop-color:#002D54"/>
</linearGradient>
<circle fill="url(#SVGID_2_)" stroke="#000000" stroke-miterlimit="10" cx="102.804" cy="179.417" r="54.079"/>
<circle fill="#29ABE2" stroke="#000000" stroke-miterlimit="10" cx="102.804" cy="179.417" r="14.427"/>
<linearGradient id="SVGID_3_" gradientUnits="userSpaceOnUse" x1="255.9321" y1="386.6396" x2="255.9321" y2="278.4814">
	<stop  offset="0" style="stop-color:#00182A"/>
	<stop  offset="1" style="stop-color:#002D54"/>
</linearGradient>
<circle fill="url(#SVGID_3_)" stroke="#000000" stroke-miterlimit="10" cx="255.932" cy="332.561" r="54.079"/>
<circle fill="#29ABE2" stroke="#000000" stroke-miterlimit="10" cx="256.356" cy="332.97" r="14.426"/>
<linearGradient id="SVGID_4_" gradientUnits="userSpaceOnUse" x1="404.9082" y1="233.4971" x2="404.9082" y2="125.3384">
	<stop  offset="0" style="stop-color:#00182A"/>
	<stop  offset="1" style="stop-color:#002D54"/>
</linearGradient>
<circle fill="url(#SVGID_4_)" stroke="#000000" stroke-miterlimit="10" cx="404.909" cy="179.417" r="54.08"/>
<circle fill="#29ABE2" stroke="#000000" stroke-miterlimit="10" cx="405.079" cy="179.417" r="14.426"/>
</svg>
